<svg xmlns="http://www.w3.org/2000/svg" width="16.551" height="24.64" viewBox="0 0 16.551 24.64">
  <g id="طفل" transform="translate(-0.001 0)">
    <path id="Path_145724" data-name="Path 145724" d="M292.68,89.4c.257.058.527.1.778.174a5.073,5.073,0,0,1,3.7,4.025,5.8,5.8,0,0,1,.122,1.292v1.273a1.64,1.64,0,0,0,.019.617c.077.18.347.109.527.174a1.776,1.776,0,0,1,1.157,1.717,1.71,1.71,0,0,1-1.3,1.595.437.437,0,0,0-.36.354,6.847,6.847,0,0,1-4.861,4.668c-.077.019-.206-.013-.219.1a1.868,1.868,0,0,0,.006.5c.013.077.129.039.193.039a12.314,12.314,0,0,1,1.614.058,4.536,4.536,0,0,1,3.832,4.18c.051,1.112.026,2.231.019,3.344a.476.476,0,0,1-.527.521H292.95a.491.491,0,0,1-.54-.489.5.5,0,0,1,.553-.476h.141c.354-.006.7-.013,1.055-.013a7.488,7.488,0,0,0,.019-1.074c.006-.463,0-.932,0-1.4,0-.444.161-.656.489-.656s.476.212.476.662V111.7c0,.386.006.772-.006,1.157-.006.161.026.219.206.219.482-.013.964-.006,1.447,0,.122,0,.161-.032.161-.161-.013-.907.019-1.813-.026-2.72a3.58,3.58,0,0,0-3.389-3.292c-.154-.006-.219.026-.257.186a2.637,2.637,0,0,1-5.138-.006c-.039-.148-.1-.18-.238-.174a3.592,3.592,0,0,0-3.408,3.279c-.045.913-.019,1.826-.026,2.739,0,.116.032.148.148.148.5-.006,1-.006,1.492,0,.141,0,.167-.051.167-.18-.006-.791-.006-1.588,0-2.379,0-.373.174-.585.489-.585s.476.212.476.592c0,.778.006,1.556-.006,2.334,0,.186.058.225.225.219.328-.013.656-.006.99-.006s.572.2.566.489a.5.5,0,0,1-.553.476h-4.411a.474.474,0,0,1-.54-.527c0-1.125-.026-2.244.026-3.369A4.55,4.55,0,0,1,287.331,106a10.391,10.391,0,0,1,1.614-.051c.225.006.283-.071.251-.27a.518.518,0,0,1,0-.141c.013-.129-.032-.186-.167-.225a6.552,6.552,0,0,1-4.713-4.752c-.045-.141-.077-.225-.257-.231a1.731,1.731,0,0,1-1.614-1.62,1.76,1.76,0,0,1,1.357-1.8c.347-.077.341-.077.347-.424.006-.772-.013-1.543.026-2.308a5.144,5.144,0,0,1,4.173-4.681c.116-.019.251,0,.354-.09Zm1.241,5.491a.7.7,0,0,1-.084.071,3.448,3.448,0,0,1-2.752,1.183c-1.447-.013-2.893-.006-4.334,0a.367.367,0,0,0-.289.071c-.431.418-.875.829-1.312,1.241a.533.533,0,0,0-.084.116.489.489,0,0,1-.669.289.777.777,0,0,0-.881,1.164.793.793,0,0,0,.862.334c.45-.1.637.032.739.469a5.591,5.591,0,0,0,4.591,4.649.481.481,0,0,1,.431.521c.006.347.013.688.019,1.035.019.791-.058.881-.849.874-.238,0-.225.077-.148.244a1.686,1.686,0,0,0,3.029.141c.206-.36.193-.379-.212-.379h-.122c-.418-.006-.6-.186-.6-.6s.013-.836.026-1.247c.006-.386.129-.521.514-.592a5.918,5.918,0,0,0,3.588-2.161,5.739,5.739,0,0,0,1.164-2.5c.084-.418.3-.553.7-.45a.392.392,0,0,0,.257-.019.779.779,0,0,0-.437-1.492c-.431.1-.521.058-.733-.315a.683.683,0,0,0-.109-.129,3.667,3.667,0,0,1-.682-.836.714.714,0,0,0-.817-.431.456.456,0,0,1-.508-.354C294.121,95.489,294.024,95.2,293.921,94.891Zm-8.809,1.286c.264-.251.508-.463.727-.7a.9.9,0,0,1,.72-.3c1.537.013,3.067.006,4.6.006a2.41,2.41,0,0,0,2.386-1.6.49.49,0,0,1,.5-.373c.264.006.392.174.469.412.129.405.264.8.4,1.209.122.36.122.373.5.36a.6.6,0,0,1,.617.36,3.692,3.692,0,0,0,.244.4,9.385,9.385,0,0,0-.019-1.993,4.127,4.127,0,0,0-4.077-3.575c-.99-.006-1.974-.019-2.964,0a4.153,4.153,0,0,0-3.138,1.492C284.977,93.117,285.048,94.621,285.112,96.177Z" transform="translate(-282.439 -89.4)" fill="#2e3092"/>
    <path id="Path_145725" data-name="Path 145725" d="M404.656,458.187a.473.473,0,0,1-.476.469.491.491,0,0,1-.482-.489.5.5,0,0,1,.482-.469A.47.47,0,0,1,404.656,458.187Z" transform="translate(-395.9 -434.016)" fill="#2e3092"/>
    <path id="Path_145726" data-name="Path 145726" d="M382.222,281.887a2.517,2.517,0,0,1-1.678-.714.469.469,0,0,1-.058-.7.449.449,0,0,1,.682-.019,1.661,1.661,0,0,0,2.321,0,.449.449,0,0,1,.682.026.478.478,0,0,1-.045.688A2.692,2.692,0,0,1,382.222,281.887Z" transform="translate(-374.058 -268.03)" fill="#2e3092"/>
    <path id="Path_145727" data-name="Path 145727" d="M369.3,224.787c0,.109.006.225,0,.334a.468.468,0,0,1-.45.469.46.46,0,0,1-.5-.418,4.347,4.347,0,0,1,0-.765.478.478,0,0,1,.952.045C369.3,224.562,369.3,224.672,369.3,224.787Z" transform="translate(-362.812 -215.335)" fill="#2e3092"/>
    <path id="Path_145728" data-name="Path 145728" d="M438.606,224.767c0-.109-.006-.225,0-.334a.476.476,0,0,1,.945-.058,4.067,4.067,0,0,1,0,.791.478.478,0,0,1-.952-.051C438.6,224.992,438.6,224.877,438.606,224.767Z" transform="translate(-428.558 -215.321)" fill="#2e3092"/>
    <path id="Path_145729" data-name="Path 145729" d="M343.418,254.924c-.109,0-.225.006-.334,0a.467.467,0,0,1-.431-.412.459.459,0,0,1,.334-.514,1.919,1.919,0,0,1,.855,0,.461.461,0,0,1,.341.489.476.476,0,0,1-.437.437C343.643,254.931,343.534,254.924,343.418,254.924Z" transform="translate(-338.777 -243.369)" fill="#2e3092"/>
    <path id="Path_145730" data-name="Path 145730" d="M456.146,255.018c-.109,0-.225.006-.334,0a.469.469,0,0,1-.1-.919,1.92,1.92,0,0,1,.855,0,.447.447,0,0,1,.341.508.467.467,0,0,1-.424.418C456.371,255.024,456.255,255.018,456.146,255.018Z" transform="translate(-444.252 -243.463)" fill="#2e3092"/>
  </g>
</svg>
