<svg xmlns="http://www.w3.org/2000/svg" width="17.044" height="26.917" viewBox="0 0 17.044 26.917">
  <g id="رضيع" transform="translate(0 0)">
    <path id="Path_145731" data-name="Path 145731" d="M236.429,105.7c.337.063.681.112,1.012.183a8.272,8.272,0,0,1,3.794,1.981.439.439,0,0,1,.1.646.435.435,0,0,1-.653-.007,7.081,7.081,0,0,0-2.838-1.637A7,7,0,0,0,230.352,109a8.216,8.216,0,0,0-2.143,6.583q.306,3.351.6,6.7c.07.787.148,1.567.211,2.354.014.169.035.232.232.155a21.763,21.763,0,0,0,2.087-.927c-.183-.155-.358-.288-.527-.436l-1.475-1.307c-.246-.225-.288-.464-.119-.66s.436-.19.689.042c.674.639,1.384,1.244,2.1,1.827a.256.256,0,0,0,.323.035,27.381,27.381,0,0,0,6.625-4.763,7.816,7.816,0,0,0,1.988-2.93,5.306,5.306,0,0,0-3.253-6.6,5.667,5.667,0,0,0-1.272-.3.655.655,0,0,0-.2.007A1.644,1.644,0,0,0,235,110.569a.964.964,0,0,0,1.461.646.624.624,0,0,0,.274-.66.522.522,0,0,0-.45-.45c-.3-.07-.443-.274-.386-.52a.436.436,0,0,1,.583-.3,1.314,1.314,0,0,1,1.054,1.012,1.4,1.4,0,0,1-.485,1.511,1.8,1.8,0,0,1-2.909-1.412,2.357,2.357,0,0,1,.443-1.454c-.063-.07-.119-.028-.169-.014a5.394,5.394,0,0,0-.478,10.229,7.2,7.2,0,0,0,1.834.52c.309.049.471.246.429.485-.049.26-.267.379-.583.337a6.913,6.913,0,0,1-4.328-2.206,6.194,6.194,0,0,1,3.393-10.279,6.178,6.178,0,0,1,7.3,5.136,6.1,6.1,0,0,1-1.3,4.721,17.588,17.588,0,0,1-3.534,3.393,30.84,30.84,0,0,1-7.841,4.391c-.141.056-.176.105-.162.26a6.765,6.765,0,0,0,13.349.358,19.493,19.493,0,0,0,.232-2.22c.155-1.651.316-3.3.45-4.946a44.948,44.948,0,0,0,.337-4.553,8.261,8.261,0,0,0-1.792-4.946c-.063-.084-.133-.162-.2-.246a.42.42,0,1,1,.653-.527,8.511,8.511,0,0,1,1.068,1.56,9.354,9.354,0,0,1,1.082,5.4c-.225,2.424-.429,4.848-.653,7.272-.105,1.131-.141,2.276-.351,3.393a7.6,7.6,0,0,1-14.965-.232c-.176-1.11-.232-2.248-.33-3.372-.155-1.686-.316-3.365-.457-5.051a27.862,27.862,0,0,1-.232-3.667A8.96,8.96,0,0,1,233.6,106a9.165,9.165,0,0,1,1.237-.246c.049-.007.112.021.126-.056Z" transform="translate(-227.325 -105.7)" fill="#c7c7c7"/>
    <path id="Path_145732" data-name="Path 145732" d="M319.726,257.893a2.425,2.425,0,0,1-2.227-1.012c-.2-.288-.19-.534.035-.689s.45-.1.632.2a1.839,1.839,0,0,0,2.859-.014c.19-.309.5-.344.7-.112a.438.438,0,0,1,0,.576A2.291,2.291,0,0,1,319.726,257.893Z" transform="translate(-311.03 -245.542)" fill="#c7c7c7"/>
    <path id="Path_145733" data-name="Path 145733" d="M366.968,214.2a.682.682,0,0,1,.014,1.363.687.687,0,0,1-.689-.674A.669.669,0,0,1,366.968,214.2Z" transform="translate(-356.53 -206.577)" fill="#c7c7c7"/>
    <path id="Path_145734" data-name="Path 145734" d="M312.467,214.2a.681.681,0,0,1,.682.674.691.691,0,0,1-.682.682.678.678,0,0,1,0-1.356Z" transform="translate(-305.865 -206.577)" fill="#c7c7c7"/>
  </g>
</svg>
