<svg xmlns="http://www.w3.org/2000/svg" width="17.636" height="17.61" viewBox="0 0 17.636 17.61">
  <path id="Path" d="M13.181,1.835l1.174,1.174a.23.23,0,0,1,.07.252l-1.5,7.392A.213.213,0,0,0,13,10.9l3.353,3.353a1.459,1.459,0,0,1,0,2.068h0a1.459,1.459,0,0,1-2.068,0L10.82,12.86a.213.213,0,0,0-.252-.07l-7.5,1.4a.3.3,0,0,1-.252-.07L1.6,12.873a.282.282,0,0,1,.07-.461l5.673-2.5a.282.282,0,0,0,.07-.461L3.735,5.775a.23.23,0,0,0-.252-.07l-2.431.5A.213.213,0,0,1,.8,6.139L.088,5.426a.284.284,0,0,1,.07-.461L2.589,3.791c0-.042.042-.042.07-.07L3.693,2.687c.042-.042.042-.042.042-.07L4.979.158A.282.282,0,0,1,5.44.088l.6.6a.23.23,0,0,1,.07.252L5.608,3.4a.213.213,0,0,0,.07.252l3.9,3.9a.284.284,0,0,0,.461-.07L12.72,1.947A.274.274,0,0,1,13.181,1.835Z" transform="translate(16.759 17.61) rotate(-177)" fill="#ccd3df"/>
</svg>
