<svg id="Icon" xmlns="http://www.w3.org/2000/svg" width="46" height="46" viewBox="0 0 46 46">
  <circle id="Background" cx="23" cy="23" r="23" fill="#2e3092" opacity="0.1"/>
  <path id="Icon_material-local-offer" data-name="Icon material-local-offer" d="M21.44,12.1l-8.55-8.55A1.888,1.888,0,0,0,11.55,3H4.9A1.906,1.906,0,0,0,3,4.9v6.65A1.9,1.9,0,0,0,3.561,12.9l8.55,8.55A1.888,1.888,0,0,0,13.45,22a1.858,1.858,0,0,0,1.34-.56l6.65-6.65A1.858,1.858,0,0,0,22,13.45a1.919,1.919,0,0,0-.56-1.349ZM6.325,7.75A1.425,1.425,0,1,1,7.75,6.325,1.423,1.423,0,0,1,6.325,7.75Z" transform="translate(11 12.5)" fill="#2e3092"/>
</svg>
