<svg xmlns="http://www.w3.org/2000/svg" xmlns:xlink="http://www.w3.org/1999/xlink" width="106" height="106" viewBox="0 0 106 106">
  <defs>
    <filter id="Rectangle_111034" x="0" y="0" width="106" height="106" filterUnits="userSpaceOnUse">
      <feOffset dy="3" input="SourceAlpha"/>
      <feGaussianBlur stdDeviation="12" result="blur"/>
      <feFlood flood-opacity="0.02"/>
      <feComposite operator="in" in2="blur"/>
      <feComposite in="SourceGraphic"/>
    </filter>
  </defs>
  <g id="Group_135660" data-name="Group 135660" transform="translate(-1022.667 -267.667)">
    <g id="Group_135658" data-name="Group 135658" transform="translate(1059 301)">
      <line id="Line_389" data-name="Line 389" x1="92.5" transform="translate(-31.583 16.667)" fill="none" stroke="#dbdbdb" stroke-width="1" stroke-dasharray="4"/>
      <g id="Group_135657" data-name="Group 135657" transform="translate(0 0)">
        <g id="Group_135656" data-name="Group 135656" transform="translate(0 0)">
          <g transform="matrix(1, 0, 0, 1, -36.33, -33.33)" filter="url(#Rectangle_111034)">
            <rect id="Rectangle_111034-2" data-name="Rectangle 111034" width="34" height="34" rx="17" transform="translate(36 33)" fill="#2e3092"/>
          </g>
        </g>
      </g>
    </g>
    <path id="Path" d="M13.883,1.933l1.236,1.236a.242.242,0,0,1,.074.265l-1.575,7.785a.225.225,0,0,0,.074.265l3.532,3.532a1.537,1.537,0,0,1,0,2.178h0a1.537,1.537,0,0,1-2.178,0l-3.65-3.65a.225.225,0,0,0-.265-.074l-7.9,1.472a.319.319,0,0,1-.265-.074l-1.28-1.31a.3.3,0,0,1,.074-.486l5.975-2.634a.3.3,0,0,0,.074-.486L3.934,6.083a.242.242,0,0,0-.265-.074l-2.561.53a.225.225,0,0,1-.265-.074L.093,5.715a.3.3,0,0,1,.074-.486L2.727,3.993c0-.044.044-.044.074-.074L3.89,2.83c.044-.044.044-.044.044-.074L5.244.167A.3.3,0,0,1,5.73.093l.633.633a.242.242,0,0,1,.074.265l-.53,2.59a.225.225,0,0,0,.074.265l4.106,4.106a.3.3,0,0,0,.486-.074L13.4,2.051A.289.289,0,0,1,13.883,1.933Z" transform="matrix(-0.956, 0.292, -0.292, -0.956, 1086.699, 323.521)" fill="#fccb81"/>
  </g>
</svg>
