<svg xmlns="http://www.w3.org/2000/svg" width="20.403" height="30.367" viewBox="0 0 20.403 30.367">
  <path id="Path_145724" data-name="Path 145724" d="M295.064,89.4c.317.071.65.119.959.214a6.254,6.254,0,0,1,4.566,4.962,7.145,7.145,0,0,1,.151,1.593v1.569a2.022,2.022,0,0,0,.024.761c.1.222.428.135.65.214a2.189,2.189,0,0,1,1.427,2.116,2.107,2.107,0,0,1-1.6,1.966.539.539,0,0,0-.444.436,8.44,8.44,0,0,1-5.993,5.755c-.1.024-.254-.016-.269.127a2.3,2.3,0,0,0,.008.618c.016.1.159.048.238.048a15.18,15.18,0,0,1,1.99.071A5.592,5.592,0,0,1,301.493,115c.063,1.371.032,2.751.024,4.122a.587.587,0,0,1-.65.642H295.4a.606.606,0,0,1-.666-.6.617.617,0,0,1,.682-.587h.174c.436-.008.864-.016,1.3-.016a9.227,9.227,0,0,0,.024-1.324c.008-.571,0-1.149,0-1.72,0-.547.2-.809.6-.809s.587.262.587.816v1.363c0,.476.008.951-.008,1.427-.008.2.032.27.254.27.594-.016,1.189-.008,1.783,0,.151,0,.2-.04.2-.2-.016-1.118.024-2.235-.032-3.353a4.413,4.413,0,0,0-4.177-4.058c-.19-.008-.269.032-.317.23a3.251,3.251,0,0,1-6.333-.008c-.048-.182-.119-.222-.293-.214a4.428,4.428,0,0,0-4.2,4.043c-.056,1.126-.024,2.251-.032,3.377,0,.143.04.182.182.182.61-.008,1.229-.008,1.839,0,.174,0,.206-.063.206-.222-.008-.975-.008-1.958,0-2.933,0-.46.214-.721.6-.721s.587.262.587.729c0,.959.008,1.918-.008,2.877,0,.23.071.277.277.27.4-.016.809-.008,1.221-.008s.706.246.7.6a.617.617,0,0,1-.682.587h-5.438a.584.584,0,0,1-.666-.65c0-1.387-.032-2.766.032-4.154a5.609,5.609,0,0,1,4.677-5.1,12.81,12.81,0,0,1,1.99-.063c.277.008.349-.087.309-.333a.639.639,0,0,1,0-.174c.016-.159-.04-.23-.206-.277a8.077,8.077,0,0,1-5.81-5.858c-.055-.174-.1-.277-.317-.285a2.134,2.134,0,0,1-1.99-2,2.169,2.169,0,0,1,1.673-2.219c.428-.1.42-.1.428-.523.008-.951-.016-1.9.032-2.846a6.342,6.342,0,0,1,5.144-5.771c.143-.024.309,0,.436-.111Zm1.53,6.769a.861.861,0,0,1-.1.087,4.251,4.251,0,0,1-3.393,1.459c-1.783-.016-3.567-.008-5.343,0a.452.452,0,0,0-.357.087c-.531.515-1.078,1.023-1.617,1.53a.657.657,0,0,0-.1.143.6.6,0,0,1-.824.357.958.958,0,0,0-1.086,1.435.977.977,0,0,0,1.062.412c.555-.127.785.04.912.579a6.892,6.892,0,0,0,5.66,5.731.593.593,0,0,1,.531.642c.008.428.016.848.024,1.276.024.975-.071,1.086-1.046,1.078-.293,0-.277.1-.182.3a2.078,2.078,0,0,0,3.733.174c.254-.444.238-.468-.262-.468h-.151c-.515-.008-.745-.23-.737-.745s.016-1.03.032-1.538c.008-.476.158-.642.634-.729a7.3,7.3,0,0,0,4.423-2.663,7.074,7.074,0,0,0,1.435-3.084c.1-.515.365-.682.864-.555a.483.483,0,0,0,.317-.024.96.96,0,0,0-.539-1.839c-.531.119-.642.071-.9-.388a.844.844,0,0,0-.135-.159,4.52,4.52,0,0,1-.84-1.03.88.88,0,0,0-1.007-.531.562.562,0,0,1-.626-.436C296.84,96.907,296.721,96.55,296.594,96.169Zm-10.86,1.585c.325-.309.626-.571.9-.864a1.1,1.1,0,0,1,.888-.373c1.894.016,3.781.008,5.676.008a2.971,2.971,0,0,0,2.941-1.974.6.6,0,0,1,.61-.46c.325.008.484.214.579.507.159.5.325.991.491,1.49.151.444.151.46.618.444a.74.74,0,0,1,.761.444,4.554,4.554,0,0,0,.3.491,11.568,11.568,0,0,0-.024-2.457,5.088,5.088,0,0,0-5.026-4.407c-1.221-.008-2.434-.024-3.654,0a5.12,5.12,0,0,0-3.868,1.839C285.568,93.982,285.655,95.836,285.734,97.755Z" transform="translate(-282.44 -89.4)" fill="#ccd3df"/>
</svg>
