<svg xmlns="http://www.w3.org/2000/svg" width="56" height="56" viewBox="0 0 56 56">
  <g id="Group_135342" data-name="Group 135342" transform="translate(-18 -45)">
    <rect id="Rectangle_111034" data-name="Rectangle 111034" width="56" height="56" rx="14" transform="translate(18 45)" fill="#8d98aa" opacity="0.1"/>
    <g id="vuesax_twotone_notification-bing" data-name="vuesax/twotone/notification-bing" transform="translate(32 59)">
      <g id="notification-bing" transform="translate(0 0)">
        <path id="Vector" d="M0,0V3.885" transform="translate(14 7.513)" fill="none" stroke="#8d98aa" stroke-linecap="round" stroke-width="1.5" opacity="0.4"/>
        <path id="Vector-2" data-name="Vector" d="M10.4,0a7.767,7.767,0,0,0-7.77,7.77v2.45A6.058,6.058,0,0,1,1.9,12.88L.417,15.353a2.488,2.488,0,0,0,1.4,3.792,27.23,27.23,0,0,0,17.185,0,2.59,2.59,0,0,0,1.4-3.792L18.92,12.88a6.1,6.1,0,0,1-.735-2.66V7.77A7.815,7.815,0,0,0,10.4,0Z" transform="translate(3.62 2.333)" fill="none" stroke="#8d98aa" stroke-linecap="round" stroke-width="1.5"/>
        <path id="Vector-3" data-name="Vector" d="M7.77,0A3.9,3.9,0,0,1,3.885,3.885,3.892,3.892,0,0,1,1.143,2.742,3.892,3.892,0,0,1,0,0" transform="translate(10.115 21.957)" fill="none" stroke="#8d98aa" stroke-width="1.5" opacity="0.4"/>
        <path id="Vector-4" data-name="Vector" d="M0,0H28V28H0Z" fill="none" opacity="0"/>
      </g>
    </g>
  </g>
</svg>
