<svg id="vuesax_twotone_lock" data-name="vuesax/twotone/lock" xmlns="http://www.w3.org/2000/svg" width="19.337" height="19.337" viewBox="0 0 19.337 19.337">
  <g id="lock">
    <path id="Vector" d="M0,6.446V4.834C0,2.167.806,0,4.834,0S9.669,2.167,9.669,4.834V6.446" transform="translate(4.834 1.611)" fill="none" stroke="#bac1cc" stroke-linecap="round" stroke-linejoin="round" stroke-width="1" opacity="0.4"/>
    <path id="Vector-2" data-name="Vector" d="M4.029,2.014A2.014,2.014,0,1,1,2.014,0,2.014,2.014,0,0,1,4.029,2.014Z" transform="translate(7.654 10.877)" fill="none" stroke="#bac1cc" stroke-linecap="round" stroke-linejoin="round" stroke-width="1" opacity="0.4"/>
    <path id="Vector-3" data-name="Vector" d="M12.086,9.669H4.029C.806,9.669,0,8.863,0,5.64V4.029C0,.806.806,0,4.029,0h8.057c3.223,0,4.029.806,4.029,4.029V5.64C16.115,8.863,15.309,9.669,12.086,9.669Z" transform="translate(1.611 8.057)" fill="none" stroke="#bac1cc" stroke-linecap="round" stroke-linejoin="round" stroke-width="1"/>
    <path id="Vector-4" data-name="Vector" d="M0,0H19.337V19.337H0Z" transform="translate(19.337 19.337) rotate(180)" fill="none" opacity="0"/>
  </g>
</svg>
