<svg xmlns="http://www.w3.org/2000/svg" width="115" height="115" viewBox="0 0 115 115">
  <g id="Group_133152" data-name="Group 133152" transform="translate(-833 -496)">
    <rect id="Rectangle_110369" data-name="Rectangle 110369" width="115" height="115" rx="57.5" transform="translate(833 496)" fill="#fafbfc"/>
    <g id="content" transform="translate(862.904 505.608)">
      <path id="Path_150780" data-name="Path 150780" d="M53.384,53.888H45.261a3.685,3.685,0,0,0-3.2-4.081V46.035a1.967,1.967,0,0,0-1.965-1.965H36.882a3.369,3.369,0,1,0-6.542,0H14.574a1.967,1.967,0,0,0-1.965,1.965v7.852H10.245a.808.808,0,1,0,0,1.617h2.363v4.09H1.617V55.7a.192.192,0,0,1,.192-.192H6.254a.808.808,0,1,0,0-1.617H1.809A1.811,1.811,0,0,0,0,55.7V86.528a1.811,1.811,0,0,0,1.809,1.809H23.875a1.811,1.811,0,0,0,1.809-1.809V83.659h3.825v2.869a1.811,1.811,0,0,0,1.809,1.809H37.9a.808.808,0,1,0,0-1.617H31.317a.192.192,0,0,1-.192-.192V83.659h8.969a1.967,1.967,0,0,0,1.965-1.965V61.211H53.575V86.528a.192.192,0,0,1-.192.192H41.89a.808.808,0,1,0,0,1.617H53.384a1.811,1.811,0,0,0,1.809-1.809V55.7A1.811,1.811,0,0,0,53.384,53.888Zm-9.715-.42a2.075,2.075,0,1,1-2.075-2.075A2.077,2.077,0,0,1,43.669,53.468ZM33.611,41.514a1.752,1.752,0,1,1-1.752,1.752A1.754,1.754,0,0,1,33.611,41.514ZM14.574,45.687h16.7a3.36,3.36,0,0,0,4.677,0h4.145a.349.349,0,0,1,.348.348v3.926a3.689,3.689,0,0,0-1.253.71H14.225V46.035a.349.349,0,0,1,.348-.348ZM40.095,82.042H14.574a.349.349,0,0,1-.348-.348V72.638a.808.808,0,1,0-1.617,0v9.057a1.967,1.967,0,0,0,1.965,1.965h9.493v2.869a.192.192,0,0,1-.192.192H1.809a.192.192,0,0,1-.192-.192V61.211H12.608v7.435a.808.808,0,1,0,1.617,0V52.288H38.1a3.688,3.688,0,0,0,2.346,4.687v24.72A.348.348,0,0,1,40.095,82.042ZM42.06,59.594V57.129A3.7,3.7,0,0,0,44.671,55.5h8.713a.192.192,0,0,1,.192.192v3.9H42.06Z" transform="translate(0 -15.3)" fill="#bac1cc"/>
      <path id="Path_150781" data-name="Path 150781" d="M232.268,295.64a3.8,3.8,0,0,0-2.465-.877h-.013a3.8,3.8,0,0,0-2.458.862.808.808,0,0,0,1.042,1.236,2.217,2.217,0,0,1,1.416-.481h.007a2.219,2.219,0,0,1,1.42.49.809.809,0,0,0,1.05-1.23Z" transform="translate(-202.571 -242.692)" fill="#bac1cc"/>
      <path id="Path_150782" data-name="Path 150782" d="M287.708,267.013h-.035a.808.808,0,0,0-.073,1.613h.018c.02,0,.04,0,.06,0h0a.808.808,0,0,0,.025-1.616Z" transform="translate(-255.945 -217.933)" fill="#bac1cc"/>
      <path id="Path_150783" data-name="Path 150783" d="M206.077,267.012h-.014a.808.808,0,0,0,.005,1.617h0a.808.808,0,0,0,0-1.617Z" transform="translate(-183.132 -217.933)" fill="#bac1cc"/>
      <path id="Path_150784" data-name="Path 150784" d="M155.849,110.774h0l.054,0,.029,0h0a.808.808,0,0,0,.162-1.6h0c-.025,0-.05-.009-.076-.012l-.028,0-.051,0h-.015a.8.8,0,0,0-.8.809A.812.812,0,0,0,155.849,110.774Z" transform="translate(-138.403 -77.099)" fill="#bac1cc"/>
      <path id="Path_150785" data-name="Path 150785" d="M178.626,110.779a.808.808,0,1,0,0-1.617h-.01a.8.8,0,0,0-.8.808A.813.813,0,0,0,178.626,110.779Z" transform="translate(-158.644 -77.099)" fill="#bac1cc"/>
      <path id="Path_150786" data-name="Path 150786" d="M201.316,110.779a.808.808,0,1,0,0-1.617h-.01a.8.8,0,0,0-.8.808A.813.813,0,0,0,201.316,110.779Z" transform="translate(-178.888 -77.099)" fill="#bac1cc"/>
      <path id="Path_150787" data-name="Path 150787" d="M53.134,112.548a.808.808,0,0,0,1.143,0l.431-.431.431.431a.808.808,0,1,0,1.143-1.143l-.431-.431.431-.431a.808.808,0,1,0-1.143-1.143l-.431.431-.431-.431a.808.808,0,0,0-1.143,1.143l.431.431-.431.431a.808.808,0,0,0,0,1.143Z" transform="translate(-47.195 -77.1)" fill="#bac1cc"/>
      <path id="Path_150788" data-name="Path 150788" d="M428.6,103.249a.808.808,0,0,0,1.143,0l.431-.431.431.431a.808.808,0,1,0,1.143-1.143l-.431-.431.431-.431A.808.808,0,0,0,430.6,100.1l-.431.431-.431-.431a.808.808,0,0,0-1.143,1.143l.431.431-.431.431A.808.808,0,0,0,428.6,103.249Z" transform="translate(-382.183 -68.803)" fill="#bac1cc"/>
      <path id="Path_150789" data-name="Path 150789" d="M237.671,26.133a.808.808,0,0,0,1.143,0l.431-.431.431.431a.808.808,0,1,0,1.143-1.143l-.431-.431.431-.431a.808.808,0,0,0-1.143-1.143l-.431.431-.431-.431a.808.808,0,0,0-1.143,1.143l.431.431-.431.431A.808.808,0,0,0,237.671,26.133Z" transform="translate(-211.839)" fill="#bac1cc"/>
    </g>
  </g>
</svg>
