<svg xmlns="http://www.w3.org/2000/svg" xmlns:xlink="http://www.w3.org/1999/xlink" viewBox="0 0 120.58 120.58"><defs><style>.cls-1{fill:url(#radial-gradient);}.cls-2{fill:url(#radial-gradient-2);}</style><radialGradient id="radial-gradient" cx="165.05" cy="64.58" r="122.62" gradientTransform="translate(-107.01 -28.35) scale(0.94 0.94)" gradientUnits="userSpaceOnUse"><stop offset="0" stop-color="#1d70b7"/><stop offset="0.38" stop-color="#1b5386"/><stop offset="1" stop-color="#172031"/></radialGradient><radialGradient id="radial-gradient-2" cx="166.52" cy="68" r="91.16" gradientTransform="translate(-107.01 -28.35) scale(0.94 0.94)" gradientUnits="userSpaceOnUse"><stop offset="0" stop-color="#ffdc92"/><stop offset="0.51" stop-color="#f8b133"/><stop offset="0.58" stop-color="#f7aa32"/><stop offset="0.68" stop-color="#f49631"/><stop offset="0.8" stop-color="#ef762f"/><stop offset="0.94" stop-color="#e84a2c"/><stop offset="1" stop-color="#e5332a"/></radialGradient></defs><title>Asset 1</title><g id="Layer_2" data-name="Layer 2"><g id="Layer_1-2" data-name="Layer 1"><circle class="cls-1" cx="60.29" cy="60.29" r="60.29"/><path class="cls-2" d="M48.62,36c-.43-.94-.84-1.86-1.24-2.76A127.41,127.41,0,0,0,27,44.88c-2.94,2.37-4.16,4.7-4.67,8.93a.21.21,0,0,0,.1,0c3.07,1.22,5.23,1,8.29-.94A127.23,127.23,0,0,1,51,41.33Zm64.81-3.56c-.43-.94-.88-1.85-1.35-2.75-4.51-5.21-13.88-7.89-27.17-6.85a108.52,108.52,0,0,0-29.66,7.1c.42.9.83,1.81,1.26,2.75.79,1.75,1.57,3.54,2.36,5.34A107.87,107.87,0,0,1,88.42,31c13.23-1,22.56,1.62,27.06,6.82A50.33,50.33,0,0,0,113.43,32.44Z"/><path class="cls-2" d="M113.74,32.37c1,2.25,1.92,5,2.92,7a9.55,9.55,0,0,1,.56,1A58.3,58.3,0,0,0,113.74,32.37ZM9,76.09Q7.53,73.59,6.34,71c-.43-.94-.82-1.88-1.18-2.82-2,4.33-2.65,8.26-1.93,11.63,0,0,0,0,0,0a59.75,59.75,0,0,0,4.49,10C6.14,86.06,6.48,81.38,9,76.09Z"/><path class="cls-2" d="M77.76,2.58a41.26,41.26,0,0,0-12-.61A80.36,80.36,0,0,0,46.11,6.29a37.4,37.4,0,0,1,2.76,3.49A90.28,90.28,0,0,1,70.81,5c7.29-.56,13.18.17,17.5,2A60.07,60.07,0,0,0,77.76,2.58ZM1.71,46a24.18,24.18,0,0,1,1-2.32c0-.3.11-.61.19-.91S3,42.28,3,42c.23-1,.49-1.88.78-2.81A60.22,60.22,0,0,0,1.71,46Z"/><path class="cls-2" d="M116.76,64.86a61.22,61.22,0,0,1-2.39,8.51c2.25,2.6,2.85,6.06,1.57,10.12a58.73,58.73,0,0,0,3.27-10.32v0A10.55,10.55,0,0,0,116.76,64.86ZM35.09,103.38a73.6,73.6,0,0,1-7.86-4.63c-2.17,6-.78,11,3.64,14.16l0,0a59.6,59.6,0,0,0,10,4.45C35,114.75,32.79,109.75,35.09,103.38Z"/><path class="cls-2" d="M110.67,70.56c-3.78-1.92-9.28-2.77-16.25-2.22a76.91,76.91,0,0,0-18.86,4.14c-.82-2.83-1.7-5.72-2.63-8.62a87.16,87.16,0,0,1,21.29-4.68c7.88-.62,14.09.34,18.36,2.51a69.74,69.74,0,0,1-1.91,8.87Z"/><path class="cls-2" d="M116.76,64.86a61.22,61.22,0,0,1-2.39,8.51,66.81,66.81,0,0,1-31.85,36.21c24.48-15,37-44.72,31.05-70.24A15.18,15.18,0,0,1,116.62,42a54.57,54.57,0,0,1,.14,22.87Z"/><path class="cls-2" d="M58.87,38c11.37,26.23,21.69,57.29,23.65,71.55C76.49,97,62.81,67.38,51,41.32L48.62,36l-1.25-2.76C50,32.06,52.6,31,55.25,29.94l1.26,2.75c.79,1.75,1.57,3.54,2.36,5.34Z"/><path class="cls-2" d="M96.72,108.33c-1,.79-2.11,1.56-3.21,2.28l0,0c-2.68,1.14-6.35.87-11-1C88.39,110.88,93.17,110.36,96.72,108.33Z"/><path class="cls-2" d="M82.52,109.58c-5.63,6-10.64,9.85-18.57,10.88h-.06c-1.83.11-3.63.14-5.43.08C66.63,120.28,75,116.71,82.52,109.58Z"/><path class="cls-2" d="M82.52,109.58A72.66,72.66,0,0,1,9,76.09Q7.53,73.59,6.34,71c-.43-.94-.82-1.88-1.18-2.82a37.83,37.83,0,0,1,2.92-5c14.48,33.34,48.41,48.62,74.44,46.49Z"/><path class="cls-2" d="M109.76,25.82a14.9,14.9,0,0,0-2.94-2.54,46.06,46.06,0,0,0-7.58-9A59.81,59.81,0,0,1,109.76,25.82Z"/><path class="cls-2" d="M53.5,26.2c-2.63,1-5.25,2.11-7.81,3.28C39.25,15.16,35.52,6.59,35.2,5.46c1.31-.61,2.63-1.16,4-1.66h0C41.6,4.14,46.78,12.1,53.5,26.2Z"/><path class="cls-2" d="M6.7,59.1a37.27,37.27,0,0,0-2.9,5A43.06,43.06,0,0,1,2.66,43.67c0-.3.11-.61.19-.91S3,42.28,3,42c.23-1,.49-1.88.78-2.81,0-.09.07-.18.1-.27A60,60,0,0,1,8.4,29.61C4.14,37.84,3.35,48.11,6.7,59.1Z"/></g></g></svg>