<svg xmlns="http://www.w3.org/2000/svg" width="18.982" height="19" viewBox="0 0 18.982 19">
  <path id="Icon_weather-day-sunny" data-name="Icon weather-day-sunny" d="M5.244,14.291a.755.755,0,0,1,.223-.554A.772.772,0,0,1,6,13.522H7.827a.677.677,0,0,1,.518.223.84.84,0,0,1,.009,1.09.664.664,0,0,1-.518.223H6.013a.729.729,0,0,1-.536-.223A.743.743,0,0,1,5.244,14.291ZM7.8,20.484a.828.828,0,0,1,.206-.545l1.314-1.278a.687.687,0,0,1,.527-.206.757.757,0,0,1,.536.206.668.668,0,0,1,.214.509.843.843,0,0,1-.214.572L9.114,21.012a.811.811,0,0,1-1.1,0A.722.722,0,0,1,7.8,20.484Zm0-12.369a.828.828,0,0,1,.206-.545.858.858,0,0,1,.572-.223.751.751,0,0,1,.527.214l1.278,1.314A.694.694,0,0,1,10.6,9.4a.733.733,0,0,1-.751.751.694.694,0,0,1-.527-.214l-1.3-1.278A.748.748,0,0,1,7.8,8.116Zm2.279,6.175a4.511,4.511,0,0,1,.626-2.324,4.667,4.667,0,0,1,1.707-1.707,4.585,4.585,0,0,1,4.129-.25,4.669,4.669,0,0,1,1.484,1A4.689,4.689,0,0,1,19.382,14.3a4.519,4.519,0,0,1-.626,2.333,4.687,4.687,0,0,1-1.7,1.7,4.661,4.661,0,0,1-4.665,0,4.687,4.687,0,0,1-1.7-1.7A4.748,4.748,0,0,1,10.079,14.291Zm1.519,0a3.158,3.158,0,0,0,3.146,3.164,3.173,3.173,0,0,0,3.164-3.164,3.013,3.013,0,0,0-.929-2.207,3.062,3.062,0,0,0-2.234-.912,3.022,3.022,0,0,0-2.216.912A2.979,2.979,0,0,0,11.6,14.291Zm2.377,6.953a.7.7,0,0,1,.223-.536.757.757,0,0,1,.536-.214.748.748,0,0,1,.545.214.728.728,0,0,1,.214.536v1.778a.755.755,0,0,1-.223.554.729.729,0,0,1-.536.223.715.715,0,0,1-.536-.223.755.755,0,0,1-.223-.554V21.244Zm0-13.852V5.569a.729.729,0,0,1,.223-.536.743.743,0,0,1,.545-.232.715.715,0,0,1,.536.223.729.729,0,0,1,.223.536V7.392a.677.677,0,0,1-.223.518.748.748,0,0,1-.536.206.772.772,0,0,1-.536-.206A.7.7,0,0,1,13.975,7.392Zm4.933,11.779a.7.7,0,0,1,.706-.706.757.757,0,0,1,.536.206l1.3,1.278a.778.778,0,0,1,.214.545.722.722,0,0,1-.214.527.8.8,0,0,1-1.072,0l-1.269-1.269A.87.87,0,0,1,18.909,19.171Zm0-9.759a.693.693,0,0,1,.206-.527L20.383,7.57a.751.751,0,0,1,.527-.214.7.7,0,0,1,.536.223.729.729,0,0,1,.223.536.755.755,0,0,1-.214.554l-1.3,1.278a.788.788,0,0,1-.536.214.649.649,0,0,1-.5-.214A.757.757,0,0,1,18.909,9.411Zm2.02,4.88a.8.8,0,0,1,.214-.554.7.7,0,0,1,.509-.214h1.805a.758.758,0,0,1,.536,1.3.729.729,0,0,1-.536.223H21.652a.664.664,0,0,1-.518-.223A.772.772,0,0,1,20.928,14.291Z" transform="translate(-5.244 -4.8)" fill="#ccd3df"/>
</svg>
