<svg xmlns="http://www.w3.org/2000/svg" width="19" height="19" viewBox="0 0 19 19">
  <g id="vuesax_bulk_bill" data-name="vuesax/bulk/bill" transform="translate(-556 -316)">
    <g id="bill" transform="translate(556 316)">
      <g id="Vector" fill="none" opacity="0">
        <path d="M0,0H19V19H0Z" stroke="none"/>
        <path d="M 1 1 L 1 18 L 18 18 L 18 1 L 1 1 M 0 0 L 19 0 L 19 19 L 0 19 L 0 0 Z" stroke="none" fill="#b9c1cc"/>
      </g>
      <g id="Vector-2" data-name="Vector" fill="none" opacity="0">
        <path d="M0,0H19V19H0Z" stroke="none"/>
        <path d="M 1 1 L 1 18 L 18 18 L 18 1 L 1 1 M 0 0 L 19 0 L 19 19 L 0 19 L 0 0 Z" stroke="none" fill="#b9c1cc"/>
      </g>
      <g id="Vector-3" data-name="Vector" transform="translate(2.905 1.979)" fill="none" opacity="0.4">
        <path d="M0,0V9.476a2.471,2.471,0,0,0,.99,1.979l4.125,3.087a2.482,2.482,0,0,0,2.969,0l4.125-3.087a2.471,2.471,0,0,0,.99-1.979V0Z" stroke="none"/>
        <path d="M 0.999995231628418 0.9999980926513672 L 0.999995231628418 9.476247787475586 C 0.999995231628418 9.938888549804688 1.219795227050781 10.37924766540527 1.588845252990723 10.65486812591553 L 5.712995052337646 13.7420482635498 C 5.969934940338135 13.93417835235596 6.2761549949646 14.03572845458984 6.598535060882568 14.03572845458984 C 6.920915126800537 14.03572845458984 7.227135181427002 13.93417835235596 7.483654975891113 13.7423677444458 L 11.60911464691162 10.65419769287109 C 11.97727489471436 10.37924766540527 12.19706535339355 9.938898086547852 12.19706535339355 9.476247787475586 L 12.19706535339355 0.9999980926513672 L 0.999995231628418 0.9999980926513672 M -4.76837158203125e-06 -1.9073486328125e-06 L 13.19706535339355 -1.9073486328125e-06 L 13.19706535339355 9.476247787475586 C 13.19706535339355 10.25208854675293 12.83290481567383 10.98833847045898 12.20748519897461 11.45541763305664 L 8.082914352416992 14.54291820526123 C 7.204164505004883 15.1999979019165 5.99291467666626 15.1999979019165 5.114154815673828 14.54291820526123 L 0.9895849227905273 11.45541763305664 C 0.3641653060913086 10.98833847045898 -4.76837158203125e-06 10.25208854675293 -4.76837158203125e-06 9.476247787475586 L -4.76837158203125e-06 -1.9073486328125e-06 Z" stroke="none" fill="#b9c1cc"/>
      </g>
      <g id="Group" transform="translate(0.99 1.385)">
        <g id="Vector-4" data-name="Vector" fill="none">
          <path d="M16.427,1.188H.594A.6.6,0,0,1,0,.594.6.6,0,0,1,.594,0H16.427a.6.6,0,0,1,.594.594A.6.6,0,0,1,16.427,1.188Z" stroke="none"/>
          <path d="M 16.42708778381348 1.1875 L 0.5937469601631165 1.1875 C 0.2691669762134552 1.1875 -3.015441961906618e-06 0.9183300137519836 -3.015441961906618e-06 0.59375 C -3.015441961906618e-06 0.2691699862480164 0.2691669762134552 0 0.5937469601631165 0 L 16.42708778381348 0 C 16.75166702270508 0 17.02083778381348 0.2691699862480164 17.02083778381348 0.59375 C 17.02083778381348 0.9183300137519836 16.75166702270508 1.1875 16.42708778381348 1.1875 Z" stroke="none" fill="#b9c1cc"/>
        </g>
      </g>
      <g id="Group-2" data-name="Group" transform="translate(5.74 5.74)">
        <g id="Vector-5" data-name="Vector" fill="none">
          <path d="M6.927,1.188H.594A.6.6,0,0,1,0,.594.6.6,0,0,1,.594,0H6.927a.6.6,0,0,1,.594.594A.6.6,0,0,1,6.927,1.188Z" stroke="none"/>
          <path d="M 6.92708683013916 1.1875 L 0.5937467217445374 1.1875 C 0.2691667377948761 1.1875 -3.25386054100818e-06 0.9183300137519836 -3.25386054100818e-06 0.59375 C -3.25386054100818e-06 0.2691699862480164 0.2691667377948761 0 0.5937467217445374 0 L 6.92708683013916 0 C 7.25166654586792 0 7.52083683013916 0.2691699862480164 7.52083683013916 0.59375 C 7.52083683013916 0.9183300137519836 7.25166654586792 1.1875 6.92708683013916 1.1875 Z" stroke="none" fill="#b9c1cc"/>
        </g>
      </g>
      <g id="Group-3" data-name="Group" transform="translate(5.74 9.698)">
        <g id="Vector-6" data-name="Vector" fill="none">
          <path d="M6.927,1.188H.594A.6.6,0,0,1,0,.594.6.6,0,0,1,.594,0H6.927a.6.6,0,0,1,.594.594A.6.6,0,0,1,6.927,1.188Z" stroke="none"/>
          <path d="M 6.92708683013916 1.1875 L 0.5937467217445374 1.1875 C 0.2691667377948761 1.1875 -3.25386054100818e-06 0.9183300137519836 -3.25386054100818e-06 0.59375 C -3.25386054100818e-06 0.2691699862480164 0.2691667377948761 0 0.5937467217445374 0 L 6.92708683013916 0 C 7.25166654586792 0 7.52083683013916 0.2691699862480164 7.52083683013916 0.59375 C 7.52083683013916 0.9183300137519836 7.25166654586792 1.1875 6.92708683013916 1.1875 Z" stroke="none" fill="#b9c1cc"/>
        </g>
      </g>
    </g>
  </g>
</svg>
