<svg xmlns="http://www.w3.org/2000/svg" width="41.718" height="39.119" viewBox="0 0 41.718 39.119">
  <g id="مسافر" transform="translate(0.5 0.497)">
    <path id="Path_145707" data-name="Path 145707" d="M269.707,139.491c-.128-.064-.106-.2-.138-.308a4.271,4.271,0,0,0-2.243-2.8.7.7,0,0,1-.383-.415,1.852,1.852,0,0,0-1.669-1.265.39.39,0,0,1-.393-.3,5.308,5.308,0,0,0-5.176-3.656,10.327,10.327,0,0,0-1.9.053,3.071,3.071,0,0,0-2.317,4.156.548.548,0,0,1-.064.616c-.287.393-.553.808-.818,1.222a3.784,3.784,0,0,0,.882,5.176c.085.074.276.1.181.287-.085.17-.149.319-.393.319a15.332,15.332,0,0,0-2.615.085,5.732,5.732,0,0,0-4.028,2.71c-.712,1.127-1.392,2.285-2.062,3.444a.558.558,0,0,1-.6.329,11.127,11.127,0,0,0-1.19,0,1.284,1.284,0,0,0-1.3,1.074c-.042.2-.117.266-.308.255-.34-.011-.691,0-1.031,0a2.521,2.521,0,0,0-2.243,1.265.657.657,0,0,1-.531.34c-1.307.181-2.625.351-3.933.563a4.588,4.588,0,0,0-3.805,4.454c-.021,2.083-.011,4.167,0,6.239,0,.308-.074.457-.383.5a6.311,6.311,0,0,0-.882.223,1.937,1.937,0,0,0-1.361,1.818c-.011.33-.011.659,0,1a1.954,1.954,0,0,0,1.467,1.9.794.794,0,0,1,.128.074H259.63c.85-.266,1.063-.553,1.074-1.446.011-1.414-.128-1.222,1.169-1.871.765-.383,1.541-.776,2.307-1.159a3.541,3.541,0,0,0,2.041-2.71l1.945-11.033c.436-2.445.861-4.879,1.3-7.313.138-.755.106-1.531.255-2.285C269.707,140.5,269.707,139.991,269.707,139.491Z" transform="translate(-229 -130.737)" fill="none" stroke="#fafafa" stroke-width="1"/>
    <path id="Path_145712" data-name="Path 145712" d="M348.312,259.448c.808,0,1.52-.011,2.232,0,.223,0,.287-.149.383-.287.68-1.02,1.371-2.041,2.041-3.082.149-.234.266-.244.489-.1.8.542.808.531.276,1.329s-1.052,1.594-1.594,2.381c-.159.234-.191.372.043.585.755.723.733.808-.106,1.467-.106.085-.17.106-.266,0-.021-.032-.064-.053-.085-.085a2.259,2.259,0,0,0-2.264-.914c-1.307.074-2.625.021-3.933.011-.266,0-.372.064-.361.351.021.659.011,1.329,0,1.988,0,.223.074.3.3.3,2.54-.011,5.091-.011,7.632,0a.358.358,0,0,0,.361-.234c1.414-2.487,2.838-4.964,4.262-7.451.106-.181.138-.287-.128-.351a2.765,2.765,0,0,1-1.488-1c-.074-.1-.138-.191-.287-.181a13.767,13.767,0,0,0-2.806.138,4.388,4.388,0,0,0-2.742,1.892C349.6,257.247,348.992,258.321,348.312,259.448Z" transform="translate(-329.427 -241.053)" fill="none" stroke="#fefefe" stroke-width="1"/>
    <path id="Path_145713" data-name="Path 145713" d="M381.771,377.811c-1.4,0-2.806.011-4.209-.011-.276,0-.361.085-.361.361.011.957,0,1.9.011,2.859a1.954,1.954,0,0,0,2.02,2.041q2.583.016,5.166,0a1.954,1.954,0,0,0,2.02-2.041c.011-.957-.011-1.9.011-2.859,0-.276-.085-.361-.361-.351Z" transform="translate(-361.461 -351.54)" fill="none" stroke="#fefefe" stroke-width="1"/>
    <path id="Path_145714" data-name="Path 145714" d="M266.692,196.919c.765,0,1.456-.011,2.147.011.266.011.329-.159.425-.329q2.567-4.767,5.134-9.545c1.159-2.147,2.307-4.283,3.465-6.43a.448.448,0,0,0-.213-.712,1.178,1.178,0,0,0-1.509.436c-.361.616-.712,1.244-1.063,1.86Q271,189.367,266.9,196.515A4.5,4.5,0,0,0,266.692,196.919Z" transform="translate(-241.249 -174.58)" fill="#fefefe"/>
    <path id="Path_145715" data-name="Path 145715" d="M528.9,345.1a19.668,19.668,0,0,0-3.348.563,3,3,0,0,0-2.115,2.849c-.064,2.115-.021,4.241-.032,6.356,0,.191.032.3.255.287q1.052-.016,2.1,0c.266.011.266-.138.266-.319a18.493,18.493,0,0,1,.085-2.657,5.786,5.786,0,0,1,2.519-3.89c.213-.149.223-.223.149-.489A4.446,4.446,0,0,1,528.9,345.1Z" transform="translate(-519.474 -322.315)" fill="none" stroke="#fefefe" stroke-width="1"/>
    <path id="Path_145716" data-name="Path 145716" d="M339.061,465.718c3.561,0,7.132-.011,10.693.011.383,0,.5-.1.478-.478-.032-.84-.011-.84-.861-.84q-10.523,0-21.035-.011c-.351,0-.478.074-.457.446.032.861.011.861.882.861Q333.912,465.723,339.061,465.718Z" transform="translate(-320.028 -428.935)" fill="#fefefe"/>
    <path id="Path_145717" data-name="Path 145717" d="M320.888,186.206c0-.213.011-.425,0-.638a1.275,1.275,0,0,0-1.105-1.222c-.457-.074-.925-.117-1.382-.181a3.11,3.11,0,0,1-1.3-.457c-.1-.064-.2-.191-.3-.021a5.5,5.5,0,0,0-1.127,2.115,2.392,2.392,0,0,0,.9,2.285,7.2,7.2,0,0,0,.882.606c.266.149.351.3.17.585s-.319.638-.489.957a.272.272,0,0,0,.064.383,1.985,1.985,0,0,0,.521.361c.606.266.786.213,1.105-.351.606-1.074,1.2-2.147,1.839-3.2A2.252,2.252,0,0,0,320.888,186.206Z" transform="translate(-289.387 -177.983)" fill="#fefefe" stroke="#fefefe" stroke-width="1"/>
    <path id="Path_145718" data-name="Path 145718" d="M291.38,148.748c.308-.542.616-1.074.914-1.594a2.415,2.415,0,0,1,.861-1.01c.17-.1.117-.213.064-.329a3.9,3.9,0,0,0-3.306-2.551,13.177,13.177,0,0,0-1.945-.032,1.753,1.753,0,0,0-1.754,1.658,1.776,1.776,0,0,0,1.562,1.881l.9.128A2.76,2.76,0,0,1,291.38,148.748Z" transform="translate(-258.634 -141.885)" fill="#fefefe"/>
    <path id="Path_145719" data-name="Path 145719" d="M360.947,354.529c2.721,0,5.431,0,8.153.011.308,0,.4-.074.4-.393-.011-.935,0-.935-.925-.935q-7.844,0-15.7-.011c-.383,0-.489.1-.478.478.032.85.011.85.85.85Z" transform="translate(-341.902 -329.554)" fill="#fdfdfd"/>
    <path id="Path_145720" data-name="Path 145720" d="M553.17,454.6c.691,0,1.371-.011,2.062,0,.266.011.34-.085.34-.34q-.016-.973,0-1.945c.011-.255-.064-.351-.33-.351-.9.011-1.8-.021-2.7.011a6.605,6.605,0,0,0-1.849.436.614.614,0,0,0-.383.712c.043.478-.2,1.031.329,1.382a.893.893,0,0,0,.5.085C551.82,454.6,552.5,454.6,553.17,454.6Z" transform="translate(-549.006 -417.82)" fill="none" stroke="#fefefe" stroke-width="1"/>
    <path id="Path_145721" data-name="Path 145721" d="M477.419,329.635c.319,0,.638-.021.957,0,.287.021.351-.1.351-.361,0-.967.011-.957-.967-.978a1.455,1.455,0,0,0-1.562.829c-.181.415-.128.5.319.51Z" transform="translate(-464.274 -307.297)" fill="#fcfcfc"/>
    <path id="Path_145723" data-name="Path 145723" d="M403.809,403.839c.553,0,1.116-.011,1.669,0,.223.011.287-.074.3-.3.032-1.031.043-1.031-.989-1.031-.872,0-1.743.011-2.625-.011-.287,0-.351.1-.351.361,0,.967-.011.967.967.967C403.118,403.839,403.458,403.839,403.809,403.839Z" transform="translate(-383.436 -373.614)" fill="#fafafa"/>
  </g>
</svg>
