<svg xmlns="http://www.w3.org/2000/svg" width="24.41" height="9.493" viewBox="0 0 24.41 9.493">
  <path id="Icon_awesome-barcode" data-name="Icon awesome-barcode" d="M0,13.993V4.5H.858v9.493Zm1.28-.007V4.5h.436v9.486Zm1.294,0V4.5H3v9.486Zm2.139,0V4.5h.422v9.486Zm1.716,0V4.5h.845v9.486Zm2.139,0V4.5H8.99v9.486Zm.858,0V4.5h.422v9.486Zm.858,0V4.5h.422v9.486Zm1.7,0V4.5h.858v9.486Zm2.139,0V4.5h.858v9.486Zm1.716,0V4.5H16.7v9.486Zm1.716,0V4.5h.858v9.486Zm1.28,0V4.5H19.7v9.486Zm2.152,0V4.5h1.28v9.486Zm1.7,0V4.5h.436v9.486Zm.858.007V4.5h.858v9.493Z" transform="translate(0 -4.5)" fill="#bac1cc"/>
</svg>
