<svg xmlns="http://www.w3.org/2000/svg" width="38.124" height="14.826" viewBox="0 0 38.124 14.826">
  <path id="Icon_awesome-barcode" data-name="Icon awesome-barcode" d="M0,19.326V4.5H1.34V19.326Zm2-.011V4.5h.681V19.315Zm2.021,0V4.5H4.68V19.315Zm3.34,0V4.5H8.02V19.315Zm2.681,0V4.5h1.319V19.315Zm3.34,0V4.5h.659V19.315Zm1.34,0V4.5h.659V19.315Zm1.34,0V4.5h.659V19.315Zm2.659,0V4.5h1.34V19.315Zm3.34,0V4.5H23.4V19.315Zm2.681,0V4.5h1.34V19.315Zm2.681,0V4.5h1.34V19.315Zm2,0V4.5h1.34V19.315Zm3.361,0V4.5h2V19.315Zm2.659,0V4.5h.681V19.315Zm1.34.011V4.5h1.34V19.326Z" transform="translate(0 -4.5)" fill="#2e3092"/>
</svg>
