<svg xmlns="http://www.w3.org/2000/svg" width="30" height="30" viewBox="0 0 30 30">
  <g id="Group_135405" data-name="Group 135405" transform="translate(-230 -13.286)">
    <g id="Group_134586" data-name="Group 134586" transform="translate(230 13)">
      <rect id="Rectangle_110420" data-name="Rectangle 110420" width="30" height="30" rx="6" transform="translate(0 0.286)" fill="#dbdad8" opacity="0"/>
    </g>
    <g id="vuesax_twotone_buildings" data-name="vuesax/twotone/buildings" transform="translate(-131 -171.714)">
      <g id="buildings" transform="translate(364 188)">
        <path id="Vector" d="M11,14H3a2.652,2.652,0,0,1-3-3V3A2.652,2.652,0,0,1,3,0H8V11A2.652,2.652,0,0,0,11,14Z" transform="translate(2 8)" fill="none" stroke="#abacd3" stroke-linecap="round" stroke-linejoin="round" stroke-width="1.5"/>
        <path id="Vector-2" data-name="Vector" d="M5.11,0A3.879,3.879,0,0,0,5,1V4H0V2A2.006,2.006,0,0,1,2,0Z" transform="translate(5 4)" fill="none" stroke="#abacd3" stroke-linecap="round" stroke-linejoin="round" stroke-width="1.5" opacity="0.4"/>
        <path id="Vector-3" data-name="Vector" d="M0,0V5" transform="translate(14 8)" fill="none" stroke="#abacd3" stroke-linecap="round" stroke-linejoin="round" stroke-width="1.5" opacity="0.4"/>
        <path id="Vector-4" data-name="Vector" d="M0,0V5" transform="translate(18 8)" fill="none" stroke="#abacd3" stroke-linecap="round" stroke-linejoin="round" stroke-width="1.5" opacity="0.4"/>
        <path id="Vector-5" data-name="Vector" d="M3,0H1A1,1,0,0,0,0,1V5H4V1A1,1,0,0,0,3,0Z" transform="translate(14 17)" fill="none" stroke="#abacd3" stroke-linecap="round" stroke-linejoin="round" stroke-width="1.5"/>
        <path id="Vector-6" data-name="Vector" d="M0,0V4" transform="translate(6 13)" fill="none" stroke="#abacd3" stroke-linecap="round" stroke-linejoin="round" stroke-width="1.5" opacity="0.4"/>
        <path id="Vector-7" data-name="Vector" d="M0,17V3A2.652,2.652,0,0,1,3,0H9a2.652,2.652,0,0,1,3,3V17a2.652,2.652,0,0,1-3,3H3A2.652,2.652,0,0,1,0,17Z" transform="translate(10 2)" fill="none" stroke="#abacd3" stroke-linecap="round" stroke-linejoin="round" stroke-width="1.5"/>
        <path id="Vector-8" data-name="Vector" d="M0,0H24V24H0Z" fill="none" opacity="0"/>
      </g>
    </g>
  </g>
</svg>
