<svg xmlns="http://www.w3.org/2000/svg" width="20.147" height="31.817" viewBox="0 0 20.147 31.817">
  <path id="Path_150580" data-name="Path 150580" d="M238.086,105.7c.4.075.806.133,1.2.216a9.778,9.778,0,0,1,4.485,2.342.519.519,0,0,1,.116.764.514.514,0,0,1-.772-.008,8.37,8.37,0,0,0-3.355-1.935A8.279,8.279,0,0,0,230.9,109.6a9.712,9.712,0,0,0-2.533,7.781q.361,3.961.706,7.914c.083.93.174,1.852.249,2.782.017.2.042.274.274.183a25.723,25.723,0,0,0,2.466-1.1c-.216-.183-.424-.34-.623-.515l-1.744-1.545c-.291-.266-.34-.548-.141-.781s.515-.224.814.05c.8.756,1.636,1.47,2.483,2.159a.3.3,0,0,0,.382.042,32.366,32.366,0,0,0,7.831-5.631,9.239,9.239,0,0,0,2.35-3.463,6.272,6.272,0,0,0-3.845-7.8,6.7,6.7,0,0,0-1.5-.349.774.774,0,0,0-.241.008,1.943,1.943,0,0,0-1.437,2.109,1.139,1.139,0,0,0,1.727.764.738.738,0,0,0,.324-.781.617.617,0,0,0-.532-.531c-.357-.083-.523-.324-.457-.615a.515.515,0,0,1,.689-.349,1.553,1.553,0,0,1,1.246,1.2,1.654,1.654,0,0,1-.573,1.786,2.125,2.125,0,0,1-3.438-1.669,2.786,2.786,0,0,1,.523-1.719c-.075-.083-.141-.033-.2-.017a6.376,6.376,0,0,0-.565,12.092,8.513,8.513,0,0,0,2.168.615c.365.058.556.291.507.573-.058.307-.316.448-.689.4a8.171,8.171,0,0,1-5.116-2.608,7.322,7.322,0,0,1,4.011-12.15,7.3,7.3,0,0,1,8.629,6.071,7.207,7.207,0,0,1-1.536,5.581,20.79,20.79,0,0,1-4.177,4.011,36.454,36.454,0,0,1-9.268,5.19c-.166.066-.208.125-.191.307a8,8,0,0,0,15.779.424,23.042,23.042,0,0,0,.274-2.624c.183-1.952.374-3.895.531-5.846a53.134,53.134,0,0,0,.4-5.381,9.764,9.764,0,0,0-2.118-5.846c-.075-.1-.158-.191-.232-.291a.5.5,0,1,1,.772-.623,10.061,10.061,0,0,1,1.262,1.844,11.056,11.056,0,0,1,1.279,6.378c-.266,2.865-.507,5.73-.772,8.6-.125,1.337-.166,2.691-.415,4.011a8.983,8.983,0,0,1-17.689-.274c-.208-1.312-.274-2.658-.39-3.986-.183-1.993-.374-3.978-.54-5.971a32.937,32.937,0,0,1-.274-4.335,10.591,10.591,0,0,1,7.4-9.617,10.831,10.831,0,0,1,1.462-.291c.058-.008.133.025.149-.066Z" transform="translate(-227.325 -105.7)" fill="#ccd3df"/>
</svg>
