<svg xmlns="http://www.w3.org/2000/svg" width="30" height="30" viewBox="0 0 30 30">
  <g id="Group_135407" data-name="Group 135407" transform="translate(-230 -12.81)">
    <g id="Group_134585" data-name="Group 134585" transform="translate(230 13)">
      <rect id="Rectangle_110420" data-name="Rectangle 110420" width="30" height="30" rx="6" transform="translate(0 -0.19)" fill="#fafafa" opacity="0"/>
    </g>
    <g id="vuesax_twotone_bill" data-name="vuesax/twotone/bill" transform="translate(-323 -300.19)">
      <g id="bill">
        <path id="Vector" d="M0,0V11.97a3.121,3.121,0,0,0,1.25,2.5l5.21,3.9a3.135,3.135,0,0,0,3.75,0l5.21-3.9a3.121,3.121,0,0,0,1.25-2.5V0Z" transform="translate(559.67 318.5)" fill="none" stroke="#fafafa" stroke-width="1.5"/>
        <path id="Vector-2" data-name="Vector" d="M0,0H20" transform="translate(558 318.5)" fill="none" stroke="#fafafa" stroke-linecap="round" stroke-width="1.5"/>
        <path id="Vector-3" data-name="Vector" d="M0,0H8" transform="translate(564 324)" fill="none" stroke="#fafafa" stroke-linecap="round" stroke-linejoin="round" stroke-width="1.5" opacity="0.4"/>
        <path id="Vector-4" data-name="Vector" d="M0,0H8" transform="translate(564 329)" fill="none" stroke="#fafafa" stroke-linecap="round" stroke-linejoin="round" stroke-width="1.5" opacity="0.4"/>
        <path id="Vector-5" data-name="Vector" d="M0,0H24V24H0Z" transform="translate(556 316)" fill="none" opacity="0"/>
        <path id="Vector-6" data-name="Vector" d="M0,0H24V24H0Z" transform="translate(556 316)" fill="none" opacity="0"/>
      </g>
    </g>
  </g>
</svg>
