<svg xmlns="http://www.w3.org/2000/svg" width="24.444" height="36.512" viewBox="0 0 24.444 36.512">
  <g id="location" transform="translate(0.241 0.2)">
    <path id="Path_145696" data-name="Path 145696" d="M396.058,144.238a4.929,4.929,0,1,1-4.92-4.938A4.946,4.946,0,0,1,396.058,144.238Zm-4.91-3.527a3.527,3.527,0,1,0,3.509,3.556A3.529,3.529,0,0,0,391.148,140.711Z" transform="translate(-379.167 -132.245)" fill="#2e3092" stroke="#2e3092" stroke-width="0.4"/>
    <path id="Path_145697" data-name="Path 145697" d="M468.347,108.014v.282a.7.7,0,1,1-1.4,0,7.83,7.83,0,0,0-.734-3.3,7.672,7.672,0,0,0-4.271-3.96c-.433-.169-.649-.452-.6-.8a.725.725,0,0,1,1.044-.546,9.062,9.062,0,0,1,4.722,3.97A9.357,9.357,0,0,1,468.347,108.014Z" transform="translate(-447.232 -96.303)" fill="#2e3092" stroke="#2e3092" stroke-width="0.4"/>
    <path id="Path_145698" data-name="Path 145698" d="M432.513,94.4a.706.706,0,1,1-.715.687A.707.707,0,0,1,432.513,94.4Z" transform="translate(-420.476 -91.567)" fill="#2e3092" stroke="#2e3092" stroke-width="0.4"/>
    <path id="Path_145695" data-name="Path 145695" d="M321.429,100.412a8.873,8.873,0,0,0-1.571-.207,17.5,17.5,0,0,1-6.171-1.778,5.259,5.259,0,0,1-1.627-1.317,2.466,2.466,0,0,1-.019-3.264,6.315,6.315,0,0,1,2.662-1.834,17.67,17.67,0,0,1,4.158-1.129l.226-.038c-.292-.376-.555-.705-.818-1.044a77.593,77.593,0,0,1-4.694-6.368,13.439,13.439,0,0,1-2.135-7.638A12.116,12.116,0,0,1,318.852,65.2,13.414,13.414,0,0,1,322,64.375c.075-.009.169.028.207-.075h2.323a9.694,9.694,0,0,0,1.383.263,12.039,12.039,0,0,1,9.407,10.629,13.191,13.191,0,0,1-2.164,8.353c-1.373,2.192-3.02,4.186-4.59,6.227-.263.339-.536.687-.828,1.063.489.094.941.169,1.392.263A14.065,14.065,0,0,1,333,92.435a5.623,5.623,0,0,1,1.712,1.336,2.476,2.476,0,0,1,0,3.4,7.27,7.27,0,0,1-3.142,1.975,21.858,21.858,0,0,1-6.011,1.195c-.1.009-.235-.066-.31.066C323.959,100.412,322.69,100.412,321.429,100.412Zm12.52-23.9a10.927,10.927,0,0,0-.132-1.872,10.585,10.585,0,1,0-20.412,5.249,18.644,18.644,0,0,0,2.841,4.995c2.3,3.085,4.769,6.048,7,9.181.188.263.245.075.329-.056,1.43-1.975,2.935-3.9,4.43-5.832a61.421,61.421,0,0,0,3.941-5.4A11.7,11.7,0,0,0,333.949,76.51ZM323.386,99a26,26,0,0,0,2.841-.15,19.514,19.514,0,0,0,5.023-1.11,6.26,6.26,0,0,0,2.145-1.232,1.226,1.226,0,0,0,0-2.051,4.831,4.831,0,0,0-1.148-.8,16.534,16.534,0,0,0-5.315-1.5c-.207-.028-.292.075-.4.216q-1.213,1.651-2.417,3.283c-.517.705-.96.7-1.477-.019-.79-1.091-1.6-2.173-2.389-3.264a.436.436,0,0,0-.461-.216,19.732,19.732,0,0,0-3.292.705,7.912,7.912,0,0,0-3.1,1.58,1.227,1.227,0,0,0,0,2.069,4.17,4.17,0,0,0,.555.433,8.3,8.3,0,0,0,1.957.931A23.8,23.8,0,0,0,323.386,99Z" transform="translate(-311.433 -64.3)" fill="#2e3092" stroke="#2e3092" stroke-width="0.4"/>
  </g>
</svg>
