<svg xmlns="http://www.w3.org/2000/svg" width="18" height="18" viewBox="0 0 18 18">
  <g id="vuesax_twotone_moneys" data-name="vuesax/twotone/moneys" transform="translate(-108 -316)">
    <g id="moneys" transform="translate(108 316)">
      <path id="Vector" d="M13.192,3.3V7.162a2.96,2.96,0,0,1-3.3,3.3H3.3a4.386,4.386,0,0,1-.96-.1,2.916,2.916,0,0,1-.532-.143A2.906,2.906,0,0,1,0,7.162V3.3A2.96,2.96,0,0,1,3.3,0H9.893c1.68,0,2.887.712,3.21,2.34A5.424,5.424,0,0,1,13.192,3.3Z" transform="translate(1.282 2.64)" fill="none" stroke="#bac1cc" stroke-linecap="round" stroke-linejoin="round" stroke-width="1"/>
      <path id="Vector-2" data-name="Vector" d="M13.1,3.21V7.072a2.96,2.96,0,0,1-3.3,3.3H3.21a4.212,4.212,0,0,1-1.492-.24A2.632,2.632,0,0,1,0,8.025a4.386,4.386,0,0,0,.96.1H7.553a2.96,2.96,0,0,0,3.3-3.3V.96a4.747,4.747,0,0,0-.09-.96C12.188.3,13.1,1.3,13.1,3.21Z" transform="translate(3.622 4.98)" fill="none" stroke="#bac1cc" stroke-linecap="round" stroke-linejoin="round" stroke-width="1" opacity="0.4"/>
      <path id="Vector-3" data-name="Vector" d="M3.96,1.98A1.98,1.98,0,1,1,1.98,0,1.98,1.98,0,0,1,3.96,1.98Z" transform="translate(5.895 5.895)" fill="none" stroke="#bac1cc" stroke-linecap="round" stroke-linejoin="round" stroke-width="1"/>
      <path id="Vector-4" data-name="Vector" d="M0,0V3.3" transform="translate(3.585 6.225)" fill="none" stroke="#bac1cc" stroke-linecap="round" stroke-linejoin="round" stroke-width="1" opacity="0.4"/>
      <path id="Vector-5" data-name="Vector" d="M0,0V3.3" transform="translate(12.165 6.225)" fill="none" stroke="#bac1cc" stroke-linecap="round" stroke-linejoin="round" stroke-width="1" opacity="0.4"/>
      <path id="Vector-6" data-name="Vector" d="M0,0H18V18H0Z" fill="none" opacity="0"/>
    </g>
  </g>
</svg>
