<svg id="office-chair" xmlns="http://www.w3.org/2000/svg" width="18.333" height="22" viewBox="0 0 18.333 22">
  <path id="Path_83" data-name="Path 83" d="M15.479,23.875H7.688a.688.688,0,1,1,0-1.375h7.792a.687.687,0,0,1,0,1.375Z" transform="translate(-2.417 -1.875)" fill="#cdd2db"/>
  <path id="Path_84" data-name="Path 84" d="M16.072,11.917H6.793a1.6,1.6,0,0,1-1.58-1.879L6.727,1.329A1.6,1.6,0,0,1,8.307,0h6.249a1.6,1.6,0,0,1,1.58,1.33l1.514,8.708a1.6,1.6,0,0,1-1.579,1.878ZM8.307,1.375a.229.229,0,0,0-.226.19L6.567,10.273a.228.228,0,0,0,.05.187.224.224,0,0,0,.175.082h9.279a.224.224,0,0,0,.175-.082.227.227,0,0,0,.05-.187L14.782,1.565a.227.227,0,0,0-.225-.19Z" transform="translate(-2.266 0)" fill="#cdd2db"/>
  <path id="Path_85" data-name="Path 85" d="M11.938,23.5a.688.688,0,0,1-.687-.687V18.688a.688.688,0,0,1,1.375,0v4.125A.688.688,0,0,1,11.938,23.5Z" transform="translate(-2.771 -1.5)" fill="#cdd2db"/>
  <path id="Path_86" data-name="Path 86" d="M17.979,19.042H4.687A.688.688,0,0,1,4,18.354V16.521A2.523,2.523,0,0,1,6.521,14h9.625a2.523,2.523,0,0,1,2.521,2.521v1.833A.688.688,0,0,1,17.979,19.042Zm-12.6-1.375H17.292V16.521a1.147,1.147,0,0,0-1.146-1.146H6.521a1.147,1.147,0,0,0-1.146,1.146Z" transform="translate(-2.167 -1.167)" fill="#cdd2db"/>
  <path id="Path_87" data-name="Path 87" d="M19.188,17.708a.688.688,0,0,1-.687-.687v-2.75a2.523,2.523,0,0,1,2.521-2.521.688.688,0,1,1,0,1.375,1.147,1.147,0,0,0-1.146,1.146v2.75A.688.688,0,0,1,19.188,17.708Z" transform="translate(-3.375 -0.979)" fill="#cdd2db"/>
  <path id="Path_88" data-name="Path 88" d="M4.521,17.708a.688.688,0,0,1-.687-.687v-2.75a1.147,1.147,0,0,0-1.146-1.146.688.688,0,0,1,0-1.375,2.523,2.523,0,0,1,2.521,2.521v2.75A.688.688,0,0,1,4.521,17.708Z" transform="translate(-2 -0.979)" fill="#cdd2db"/>
</svg>
