<svg id="document-text" xmlns="http://www.w3.org/2000/svg" width="20" height="20" viewBox="0 0 20 20">
  <path id="Vector" d="M15,4.167V12.5c0,2.5-1.25,4.167-4.167,4.167H4.167C1.25,16.667,0,15,0,12.5V4.167C0,1.667,1.25,0,4.167,0h6.667C13.75,0,15,1.667,15,4.167Z" transform="translate(2.5 1.667)" fill="none" stroke="#2e3092" stroke-linecap="round" stroke-linejoin="round" stroke-width="1"/>
  <path id="Vector-2" data-name="Vector" d="M0,0V1.667A1.672,1.672,0,0,0,1.667,3.333H3.333" transform="translate(12.083 3.75)" fill="none" stroke="#2e3092" stroke-linecap="round" stroke-linejoin="round" stroke-width="1" opacity="0.4"/>
  <path id="Vector-3" data-name="Vector" d="M0,0H3.333" transform="translate(6.667 10.833)" fill="none" stroke="#2e3092" stroke-linecap="round" stroke-linejoin="round" stroke-width="1" opacity="0.4"/>
  <path id="Vector-4" data-name="Vector" d="M0,0H6.667" transform="translate(6.667 14.167)" fill="none" stroke="#2e3092" stroke-linecap="round" stroke-linejoin="round" stroke-width="1" opacity="0.4"/>
  <path id="Vector-5" data-name="Vector" d="M0,0H20V20H0Z" fill="none" opacity="0"/>
</svg>
