<svg id="vuesax_twotone_call" data-name="vuesax/twotone/call" xmlns="http://www.w3.org/2000/svg" width="19.337" height="19.337" viewBox="0 0 19.337 19.337">
  <g id="call">
    <g id="call-2" data-name="call" transform="translate(2.149 2.149)">
      <path id="Vector" d="M15.008,12.28a1.915,1.915,0,0,1-.188.82,3.1,3.1,0,0,1-.511.767,3.388,3.388,0,0,1-1.233.887,3.772,3.772,0,0,1-1.465.286,6.26,6.26,0,0,1-2.45-.549A13.2,13.2,0,0,1,6.576,13,21.61,21.61,0,0,1,4.111,10.9a21.364,21.364,0,0,1-2.1-2.459A13.409,13.409,0,0,1,.541,5.873,6.337,6.337,0,0,1,0,3.414,3.892,3.892,0,0,1,.271,1.963,3.461,3.461,0,0,1,1.135.707,2.2,2.2,0,0,1,2.7,0a1.412,1.412,0,0,1,.609.135,1.225,1.225,0,0,1,.5.421L5.554,3.016a2.574,2.574,0,0,1,.3.526A1.189,1.189,0,0,1,5.96,4a1.021,1.021,0,0,1-.158.534,2.558,2.558,0,0,1-.421.534l-.571.594a.4.4,0,0,0-.12.3.683.683,0,0,0,.023.173c.023.06.045.105.06.15a6.24,6.24,0,0,0,.7.963c.338.391.7.79,1.09,1.188.406.4.8.767,1.195,1.105a5.768,5.768,0,0,0,.969.692c.038.015.083.038.135.06a.519.519,0,0,0,.188.03.413.413,0,0,0,.308-.128l.571-.564a2.306,2.306,0,0,1,.541-.421A1,1,0,0,1,11,9.054a1.2,1.2,0,0,1,.458.1,2.906,2.906,0,0,1,.526.293l2.488,1.767a1.141,1.141,0,0,1,.413.481A1.544,1.544,0,0,1,15.008,12.28Z" fill="none" stroke="#bac1cc" stroke-width="1"/>
    </g>
    <path id="Vector-2" data-name="Vector" d="M0,0H19.337V19.337H0Z" fill="none" opacity="0"/>
  </g>
</svg>
