<svg xmlns="http://www.w3.org/2000/svg" width="24.408" height="17.475" viewBox="0 0 24.408 17.475">
  <g id="airport2" transform="translate(0 0)">
    <path id="Path_145699" data-name="Path 145699" d="M246.833,204.015c.2-.092.454-.131.447-.447a.861.861,0,0,0-.439-.785c-.485-.269-.516-.346-.339-.855.2-.562.4-1.116.593-1.678a.754.754,0,0,1,.423-.47q2.229-1.062,4.45-2.133a5.1,5.1,0,0,0,1.263-.785c.154-.139.354-.293.285-.523a1.089,1.089,0,0,0-.593-.562c-.092-.054-.115.031-.154.085a3.93,3.93,0,0,1-1.186.947c-.3.169-.554.131-.7-.108s-.062-.508.246-.693a3.041,3.041,0,0,0,.816-.616,2.751,2.751,0,0,0-1.894.185c-1.447.67-2.887,1.363-4.334,2.056q-4.781,2.287-9.547,4.581a.778.778,0,0,1-.654.023c-1.124-.431-2.263-.831-3.387-1.27a.724.724,0,0,0-.87.131c.485.523.985,1.055,1.47,1.594.085.1.154.077.246.031.331-.162.654-.316.985-.47a.462.462,0,1,1,.4.824c-.285.139-.57.277-.87.416a2.655,2.655,0,0,0,2.571,1,15.268,15.268,0,0,0,4.742-1.486c.423-.2.685-.169.824.1.146.293.015.516-.431.731a16.656,16.656,0,0,1-4.589,1.517,3.775,3.775,0,0,1-3.457-.862c-.223-.216-.423-.447-.631-.67-.754-.816-1.517-1.632-2.271-2.448-.331-.362-.293-.639.131-.878.308-.177.624-.339.924-.516a.7.7,0,0,1,.654-.054c1.186.454,2.387.885,3.572,1.34a.606.606,0,0,0,.539-.031q3.765-1.813,7.529-3.618c.108-.054.346-.038.216-.3-.139-.277-.377-.454-.562-.37-.246.108-.485.223-.724.346a.754.754,0,0,1-.631.038c-1.332-.447-2.671-.878-4-1.324a.731.731,0,0,0-.677.069c-.269.162-.547.308-.831.462.031.123.131.139.208.185.824.539,1.655,1.07,2.487,1.609a.534.534,0,0,1,.285.308.44.44,0,0,1-.139.493.467.467,0,0,1-.608-.008c-.955-.624-1.917-1.24-2.872-1.855-.169-.108-.346-.216-.508-.331a.464.464,0,0,1,.015-.839c.57-.331,1.155-.647,1.74-.947a1.365,1.365,0,0,1,1.086-.054c1.278.431,2.564.847,3.842,1.27a.5.5,0,0,0,.454-.031c.085-.054.192-.092.285-.139a1.321,1.321,0,0,1,1.94.639c.108.216.192.2.377.115,1.463-.708,2.933-1.4,4.4-2.109a4.087,4.087,0,0,1,4.157.223.642.642,0,0,0,.092.062,1.4,1.4,0,0,1,.162,2.456,6.209,6.209,0,0,1-1.463.908q-2.09,1-4.2,2.009a.456.456,0,0,0-.269.3c-.108.346-.239.685-.37,1.024a.3.3,0,0,0,.092.385,1.745,1.745,0,0,1,.577,1.578,1.131,1.131,0,0,1-.624.908c-.346.169-.685.346-1.032.493a.565.565,0,0,0-.346.377c-.508,1.455-1.039,2.9-1.547,4.35a1.876,1.876,0,0,1-.97,1.086c-.531.269-1.062.524-1.6.77-.462.216-.785-.008-.731-.523.2-1.909.416-3.819.624-5.72.162-1.47.323-2.933.477-4.4a.63.63,0,0,1,.4-.57q1.813-.866,3.626-1.74a.678.678,0,0,1,.385-.108.436.436,0,0,1,.408.385.453.453,0,0,1-.285.508c-.647.308-1.293.624-1.94.932-.493.239-.978.477-1.478.7a.385.385,0,0,0-.239.346c-.277,2.61-.57,5.228-.855,7.837-.046.393-.077.778-.123,1.209.37-.185.716-.346,1.047-.523a1.059,1.059,0,0,0,.439-.616c.693-1.94,1.386-3.873,2.071-5.813.023-.069.046-.146.077-.216a.458.458,0,0,1,.862.3,1.807,1.807,0,0,1-.054.192.261.261,0,0,1-.008.077A.251.251,0,0,0,246.833,204.015Z" transform="translate(-230.029 -194.383)" fill="#bac1cc"/>
    <path id="Path_145700" data-name="Path 145700" d="M447.495,318.784a.307.307,0,0,1-.095.021.358.358,0,0,1,.011-.105A.32.32,0,0,0,447.495,318.784Z" transform="translate(-430.683 -309.145)" fill="#bac1cc"/>
  </g>
</svg>
