<svg xmlns="http://www.w3.org/2000/svg" width="40.006" height="44.6" viewBox="0 0 40.006 44.6">
  <g id="مسافر2" transform="translate(-239.8 -79.1)">
    <path id="Path_145735" data-name="Path 145735" d="M272.058,204.553c-.058-.128-.2-.1-.3-.14a2.323,2.323,0,0,1-1.489-2.024,2.239,2.239,0,0,1,.966-2.152.5.5,0,0,0,.244-.593q-1.309-7.049-2.559-14.1c-.058-.3-.163-.419-.489-.419a1.933,1.933,0,0,1-1.454-.675c-1.605-1.815-3.222-3.618-4.816-5.432a7.773,7.773,0,0,1-.64-1.012v23.277a2.973,2.973,0,0,1-1.989,3,2.635,2.635,0,0,1-2.769-.64c-.175-.174-.256-.244-.489-.023a2.783,2.783,0,0,1-3.025.617,2.718,2.718,0,0,1-1.919-2.408c-.14-1.4-.035-2.815-.047-4.223a8.7,8.7,0,0,1,.012-.954c.035-.314-.093-.372-.384-.372q-4.746.017-9.481.012c-1.128,0-1.629-.5-1.629-1.617v-6.445c0-1.163.477-1.629,1.64-1.629.547,0,1.105-.012,1.652,0,.256.012.361-.047.337-.326a3.938,3.938,0,0,1,.012-.907,2,2,0,0,1,1.221-1.582c.221-.1.279-.186.209-.407a1.836,1.836,0,0,1,.1-1.268c1.3-2.978,2.582-5.968,3.92-8.934a4.013,4.013,0,0,1,3.8-2.513c2.478-.035,4.956-.047,7.445,0a3.8,3.8,0,0,1,3.746,2.536,15.979,15.979,0,0,0,3.827,5.968c.826.791,1.536,1.7,2.3,2.559a1.977,1.977,0,0,1,.268,2.478.5.5,0,0,0-.07.407c.221,1.221.442,2.455.651,3.676.047.256.116.349.407.279.756-.174,1.536-.3,2.3-.442a3.768,3.768,0,0,1,4.665,3.257q.75,4.188,1.524,8.376a1.847,1.847,0,0,1-1.4,2.222c-1.012.256-2.036.454-3.048.675-.116.023-.256,0-.314.174a2.892,2.892,0,0,1-1.722,1.757C272.872,204.553,272.465,204.553,272.058,204.553Zm-11.842-16.216V175.46c0-.4.035-.791.489-.907.477-.128.71.209.907.57.256.477.523.942.779,1.408a10.412,10.412,0,0,0,.966,1.687c1.535,1.815,3.141,3.571,4.723,5.351a.623.623,0,0,0,1-.081.834.834,0,0,0-.1-1.035c-.593-.675-1.175-1.373-1.8-2a18.035,18.035,0,0,1-4.467-6.735,2.579,2.579,0,0,0-2.676-1.745q-3.507.017-7,0a2.686,2.686,0,0,0-2.687,1.757q-1.867,4.275-3.734,8.538a1.851,1.851,0,0,0-.151.535.561.561,0,0,0,.442.617.581.581,0,0,0,.71-.268c.058-.1.1-.209.163-.314.942-1.873,1.873-3.746,2.815-5.63l.872-1.745a.638.638,0,0,1,.8-.349.663.663,0,0,1,.523.663v10.493c0,.174-.07.361.174.477a1.285,1.285,0,0,1,.733,1.28v6.828a1.314,1.314,0,0,1-.768,1.268.315.315,0,0,0-.221.314c.012,1.7,0,3.4.012,5.1a1.5,1.5,0,0,0,.989,1.454,1.576,1.576,0,0,0,2.2-1.512c.012-3.4,0-6.794,0-10.179,0-.512-.012-1.012,0-1.524a.7.7,0,0,1,.884-.7c.454.1.512.442.512.838v10.97c0,.233-.012.465,0,.7a1.448,1.448,0,0,0,2.862.314,2.613,2.613,0,0,0,.07-.733Q260.21,194.735,260.215,188.337Zm-13.61-.349h-5.211c-.221,0-.337.023-.326.291.035,2.117.058,4.234.058,6.351,0,.279.1.326.361.326,3.443-.035,6.9-.058,10.342-.07.3,0,.4-.07.384-.384q-.052-3.089-.07-6.177c0-.279-.081-.361-.361-.349M278.514,199.9c-.035-.174-.07-.349-.093-.523-.361-1.931-.721-3.874-1.07-5.8-.058-.337-.163-.361-.477-.279-1.5.419-3.013.814-4.525,1.21-.186.047-.326.058-.279.326.291,1.547.558,3.106.826,4.653.035.186.093.256.279.291a2.214,2.214,0,0,1,1.559,1.14.369.369,0,0,0,.477.221c.907-.186,1.815-.372,2.722-.547C278.362,200.528,278.479,200.261,278.514,199.9Zm-4.188-10.563c-.9.186-1.966.407-3.025.628-.2.035-.14.186-.116.314.174.919.349,1.85.523,2.769.035.163.093.233.256.186,1.605-.43,3.2-.861,4.8-1.291.14-.035.174-.093.163-.244A2.553,2.553,0,0,0,274.326,189.337Zm-23.044-10.411c-.035-.012-.058-.012-.093-.023q-1.187,2.356-2.385,4.7c-.093.186-.012.244.116.337a2.378,2.378,0,0,1,.907,1.675c.047.326-.2.768.151.942.279.14.686.023,1.035.035.209.012.279-.058.279-.268Q251.276,182.625,251.281,178.926Zm-4.676,7.666h.954c.826,0,.826,0,.814-.814-.012-.582-.233-.8-.826-.8h-1.78a.76.76,0,0,0-.872.8c-.012.14.012.291,0,.43-.035.291.058.407.372.4C245.709,186.569,246.163,186.592,246.605,186.592Zm26.069,14.553a1.013,1.013,0,0,0-.989,1,1.067,1.067,0,0,0,1.035,1.024,1.082,1.082,0,0,0,1.024-1.024A1.07,1.07,0,0,0,272.674,201.145Z" transform="translate(0 -80.888)" fill="#2e3092"/>
    <path id="Path_145736" data-name="Path 145736" d="M350.646,87.662a4.31,4.31,0,0,1-4.246-4.327,4.257,4.257,0,0,1,4.234-4.234,4.31,4.31,0,0,1,4.246,4.327A4.242,4.242,0,0,1,350.646,87.662Zm2.838-4.292a2.844,2.844,0,0,0-5.688-.058,2.844,2.844,0,1,0,5.688.058Z" transform="translate(-94.2)" fill="#2e3092"/>
  </g>
</svg>
