<svg xmlns="http://www.w3.org/2000/svg" width="11.568" height="17.164" viewBox="0 0 11.568 17.164">
  <g id="location" transform="translate(0.222 0.2)">
    <path id="Path_145696" data-name="Path 145696" d="M390.776,141.592a2.288,2.288,0,1,1-2.284-2.292A2.3,2.3,0,0,1,390.776,141.592Zm-2.279-1.637a1.637,1.637,0,1,0,1.629,1.651A1.638,1.638,0,0,0,388.5,139.955Z" transform="translate(-382.935 -136.025)" fill="#bac1cc" stroke="#bac1cc" stroke-width="0.4"/>
    <path id="Path_145697" data-name="Path 145697" d="M464.589,103.52v.131a.326.326,0,1,1-.651,0,3.635,3.635,0,0,0-.341-1.533,3.561,3.561,0,0,0-1.982-1.838c-.2-.079-.3-.21-.279-.371a.336.336,0,0,1,.485-.253,4.207,4.207,0,0,1,2.192,1.843A4.343,4.343,0,0,1,464.589,103.52Z" transform="translate(-454.787 -98.083)" fill="#bac1cc" stroke="#bac1cc" stroke-width="0.4"/>
    <path id="Path_145698" data-name="Path 145698" d="M432.13,94.4a.328.328,0,1,1-.332.319A.328.328,0,0,1,432.13,94.4Z" transform="translate(-426.542 -93.083)" fill="#bac1cc" stroke="#bac1cc" stroke-width="0.4"/>
    <path id="Path_145695" data-name="Path 145695" d="M316.073,81.063a4.118,4.118,0,0,0-.729-.1,8.126,8.126,0,0,1-2.865-.825,2.442,2.442,0,0,1-.755-.611,1.145,1.145,0,0,1-.009-1.515,2.932,2.932,0,0,1,1.236-.852,8.2,8.2,0,0,1,1.93-.524l.1-.017c-.135-.175-.258-.327-.38-.485a36.021,36.021,0,0,1-2.179-2.956,6.239,6.239,0,0,1-.991-3.546,5.625,5.625,0,0,1,3.441-4.917,6.227,6.227,0,0,1,1.463-.384c.035,0,.079.013.1-.035h1.079a4.5,4.5,0,0,0,.642.122,5.589,5.589,0,0,1,4.367,4.934,6.123,6.123,0,0,1-1,3.878c-.638,1.017-1.4,1.943-2.131,2.891l-.384.493c.227.044.437.079.646.122a6.53,6.53,0,0,1,1.795.62,2.61,2.61,0,0,1,.795.62,1.15,1.15,0,0,1,0,1.576,3.375,3.375,0,0,1-1.458.917,10.147,10.147,0,0,1-2.79.555c-.048,0-.109-.031-.144.031C317.248,81.063,316.658,81.063,316.073,81.063Zm5.812-11.1a5.07,5.07,0,0,0-.061-.869,4.914,4.914,0,1,0-9.476,2.437,8.654,8.654,0,0,0,1.319,2.319c1.065,1.432,2.214,2.808,3.249,4.262.087.122.114.035.153-.026.664-.917,1.362-1.812,2.057-2.707a28.519,28.519,0,0,0,1.83-2.506A5.431,5.431,0,0,0,321.885,69.968Zm-4.9,10.441a12.069,12.069,0,0,0,1.319-.07,9.058,9.058,0,0,0,2.332-.515,2.905,2.905,0,0,0,1-.572.569.569,0,0,0,0-.952,2.243,2.243,0,0,0-.533-.371,7.675,7.675,0,0,0-2.467-.694c-.1-.013-.135.035-.183.1-.375.511-.751,1.017-1.122,1.524-.24.327-.445.323-.686-.009-.367-.507-.742-1.009-1.109-1.515a.2.2,0,0,0-.214-.1,9.158,9.158,0,0,0-1.528.327,3.673,3.673,0,0,0-1.441.734.569.569,0,0,0,0,.961,1.935,1.935,0,0,0,.258.2,3.855,3.855,0,0,0,.908.432A11.046,11.046,0,0,0,316.982,80.408Z" transform="translate(-311.433 -64.3)" fill="#bac1cc" stroke="#bac1cc" stroke-width="0.4"/>
  </g>
</svg>
