<svg id="airport2" xmlns="http://www.w3.org/2000/svg" width="34.598" height="24.77" viewBox="0 0 34.598 24.77">
  <path id="Path_145699" data-name="Path 145699" d="M253.848,208.036c.284-.131.644-.186.633-.633a1.221,1.221,0,0,0-.622-1.113c-.687-.382-.731-.491-.48-1.211.284-.8.567-1.582.84-2.379a1.068,1.068,0,0,1,.6-.666q3.159-1.506,6.308-3.023a7.23,7.23,0,0,0,1.79-1.113c.218-.2.5-.415.4-.742a1.544,1.544,0,0,0-.84-.8c-.131-.076-.164.044-.218.12a5.57,5.57,0,0,1-1.681,1.342c-.426.24-.786.186-.993-.153s-.087-.72.349-.982a4.31,4.31,0,0,0,1.157-.873,3.9,3.9,0,0,0-2.685.262c-2.052.949-4.092,1.932-6.144,2.914q-6.777,3.241-13.532,6.493a1.1,1.1,0,0,1-.928.033c-1.593-.611-3.208-1.179-4.8-1.8a1.026,1.026,0,0,0-1.233.186c.688.742,1.4,1.5,2.084,2.259.12.142.218.109.349.044.469-.229.928-.447,1.4-.666a.655.655,0,1,1,.567,1.168c-.4.2-.808.393-1.233.589a3.764,3.764,0,0,0,3.645,1.419,21.641,21.641,0,0,0,6.722-2.106c.6-.284.971-.24,1.168.142.207.415.022.731-.611,1.037a23.609,23.609,0,0,1-6.5,2.15,5.351,5.351,0,0,1-4.9-1.222c-.316-.306-.6-.633-.895-.949-1.069-1.157-2.15-2.314-3.219-3.47-.469-.513-.415-.906.186-1.244.437-.251.884-.48,1.31-.731a1,1,0,0,1,.928-.076c1.681.644,3.383,1.255,5.064,1.9a.859.859,0,0,0,.764-.044q5.336-2.57,10.673-5.129c.153-.076.491-.055.306-.426-.2-.393-.535-.644-.8-.524-.349.153-.688.316-1.026.491a1.069,1.069,0,0,1-.895.055c-1.888-.633-3.787-1.244-5.675-1.877a1.036,1.036,0,0,0-.96.1c-.382.229-.775.437-1.179.655.044.175.186.2.295.262,1.168.764,2.346,1.517,3.525,2.281a.757.757,0,0,1,.4.437.624.624,0,0,1-.2.7.662.662,0,0,1-.862-.011c-1.353-.884-2.717-1.757-4.07-2.63-.24-.153-.491-.306-.72-.469a.658.658,0,0,1,.022-1.189c.808-.469,1.637-.917,2.466-1.342a1.934,1.934,0,0,1,1.539-.076c1.812.611,3.634,1.2,5.445,1.8a.7.7,0,0,0,.644-.044c.12-.076.273-.131.4-.2a1.873,1.873,0,0,1,2.75.906c.153.306.273.284.535.164,2.073-1,4.158-1.986,6.231-2.99a5.794,5.794,0,0,1,5.893.316.911.911,0,0,0,.131.087c1.451.993,1.539,2.313.229,3.481a8.8,8.8,0,0,1-2.073,1.288q-2.963,1.424-5.947,2.848a.647.647,0,0,0-.382.426c-.153.491-.338.971-.524,1.451a.42.42,0,0,0,.131.546,2.474,2.474,0,0,1,.818,2.237,1.6,1.6,0,0,1-.884,1.288c-.491.24-.971.491-1.462.7a.8.8,0,0,0-.491.535c-.72,2.063-1.473,4.114-2.193,6.166a2.659,2.659,0,0,1-1.375,1.539c-.753.382-1.506.742-2.27,1.091-.655.306-1.113-.011-1.037-.742.284-2.706.589-5.413.884-8.108.229-2.084.458-4.158.677-6.242a.892.892,0,0,1,.567-.808q2.57-1.228,5.14-2.466a.961.961,0,0,1,.546-.153.618.618,0,0,1,.578.546.642.642,0,0,1-.4.72c-.917.437-1.833.884-2.75,1.32-.7.338-1.386.677-2.1.993a.546.546,0,0,0-.338.491c-.393,3.7-.808,7.41-1.211,11.109-.065.557-.109,1.1-.175,1.713.524-.262,1.015-.491,1.484-.742a1.5,1.5,0,0,0,.622-.873c.982-2.75,1.964-5.489,2.936-8.239.033-.1.065-.207.109-.306a.649.649,0,0,1,1.222.426,2.548,2.548,0,0,1-.076.273.371.371,0,0,1-.011.109A.356.356,0,0,0,253.848,208.036Z" transform="translate(-230.029 -194.383)" fill="#fbb03f"/>
  <path id="Path_145700" data-name="Path 145700" d="M447.534,318.819a.435.435,0,0,1-.134.03.507.507,0,0,1,.015-.149A.454.454,0,0,0,447.534,318.819Z" transform="translate(-423.704 -305.156)" fill="#fbb03f"/>
</svg>
